<svg xmlns="http://www.w3.org/2000/svg" viewBox="0 -0.5 125 45" shape-rendering="crispEdges"><path stroke="#181425" d="M28 0h3m6 0h1M27 1h1m3 0h1m4 0h1m1 0h1m31 0h3m6 0h1M26 2h1m5 0h1m2 0h1m3 0h1m28 0h2m3 0h1m3 0h2m1 0h1M26 3h1m5 0h1m1 0h1m4 0h1m27 0h1m5 0h1m2 0h1m4 0h1M27 4h1m3 0h1m2 0h1m3 0h1m28 0h1m4 0h1m2 0h1m5 0h1M28 5h1m1 0h1m4 0h1m1 0h1m30 0h1m3 0h1m3 0h1m3 0h1M29 6h1m6 0h1m32 0h1m1 0h1m4 0h1m2 0h1M70 7h1m6 0h2m32 1h5M8 9h7m33 0h17m1 0h1m20 0h18m4 0h2m5 0h2M4 10h4m7 0h2m8 0h3m10 0h2m3 0h5m17 0h1m1 0h1m16 0h3m17 0h1m4 0h1m7 0h1M2 11h2m13 0h1m5 0h2m3 0h1m7 0h2m2 0h3m22 0h1m2 0h1m9 0h3m1 0h2m21 0h1m2 0h1m9 0h1M2 12h1m15 0h1m4 0h1m4 0h1m7 0h1m3 0h1m22 0h2m4 0h1m7 0h1m3 0h1m23 0h1m2 0h1m9 0h1M2 13h1m7 0h5m4 0h1m3 0h1m4 0h1m7 0h1m3 0h1m17 0h5m1 0h1m4 0h1m7 0h1m4 0h1m15 0h7m2 0h1m10 0h1M3 14h1m5 0h1m5 0h1m3 0h1m2 0h1m5 0h1m7 0h1m4 0h10m5 0h2m5 0h1m5 0h1m7 0h1m4 0h1m3 0h6m5 0h1m9 0h1m10 0h1M3 15h3m3 0h1m5 0h1m3 0h1m2 0h1m4 0h1m8 0h1m4 0h1m8 0h1m5 0h1m6 0h1m5 0h1m7 0h1m5 0h3m5 0h1m5 0h1m9 0h1m11 0h1M5 16h1m2 0h1m6 0h1m3 0h1m2 0h1m4 0h1m8 0h1m4 0h1m8 0h1m5 0h1m6 0h1m5 0h1m7 0h1m5 0h1m7 0h1m4 0h1m9 0h1m6 0h1m5 0h1M5 17h1m2 0h1m5 0h1m4 0h1m2 0h1m4 0h1m8 0h1m4 0h1m7 0h1m5 0h1m7 0h1m5 0h1m7 0h1m5 0h1m6 0h1m5 0h1m9 0h1m5 0h2m5 0h1M4 18h1m3 0h1m4 0h1m5 0h1m2 0h1m4 0h1m8 0h1m4 0h1m7 0h1m5 0h1m7 0h1m4 0h1m8 0h1m5 0h1m6 0h1m5 0h1m8 0h1m6 0h1m1 0h1m4 0h1M4 19h1m3 0h1m2 0h2m5 0h1m2 0h1m5 0h1m8 0h1m4 0h1m7 0h1m5 0h1m6 0h1m5 0h1m8 0h1m5 0h1m6 0h1m5 0h1m8 0h1m5 0h1m2 0h1m5 0h1M4 20h1m3 0h3m6 0h1m3 0h1m5 0h1m8 0h1m4 0h1m7 0h1m5 0h1m6 0h1m5 0h1m8 0h1m5 0h1m6 0h1m5 0h1m8 0h1m5 0h1m2 0h1m5 0h1M3 21h1m4 0h1m8 0h1m3 0h1m4 0h1m9 0h1m4 0h1m7 0h1m5 0h1m6 0h1m5 0h1m8 0h1m5 0h1m6 0h1m4 0h1m8 0h1m6 0h1m2 0h1m5 0h1M3 22h1m12 0h1m4 0h1m4 0h1m9 0h1m4 0h1m7 0h1m4 0h1m7 0h1m5 0h1m8 0h1m5 0h1m6 0h1m4 0h1m8 0h1m5 0h1m3 0h1m6 0h1M3 23h1m11 0h1m5 0h1m4 0h1m8 0h1m5 0h1m6 0h1m5 0h1m7 0h1m4 0h1m9 0h1m4 0h1m6 0h1m5 0h1m8 0h1m5 0h4m8 0h2M3 24h1m10 0h1m5 0h1m5 0h1m8 0h1m5 0h1m6 0h1m5 0h1m7 0h1m4 0h1m8 0h1m5 0h1m6 0h1m5 0h1m7 0h1m20 0h1M2 25h1m11 0h1m5 0h1m5 0h1m8 0h1m5 0h1m6 0h1m5 0h1m7 0h1m4 0h1m8 0h1m5 0h1m6 0h1m5 0h1m7 0h1m18 0h2M2 26h1m10 0h1m6 0h1m5 0h1m8 0h1m4 0h1m7 0h1m5 0h1m7 0h1m4 0h1m8 0h1m5 0h1m6 0h1m5 0h1m6 0h1m18 0h1M2 27h1m5 0h1m5 0h1m5 0h1m5 0h1m7 0h1m5 0h1m7 0h1m4 0h1m8 0h1m4 0h1m7 0h1m6 0h1m6 0h1m5 0h1m6 0h1m11 0h2m5 0h1M2 28h1m4 0h2m6 0h1m4 0h1m4 0h1m8 0h1m5 0h1m7 0h1m4 0h1m7 0h1m5 0h1m7 0h1m6 0h1m6 0h1m5 0h1m6 0h1m8 0h3m1 0h1m5 0h1M2 29h1m4 0h1m1 0h1m5 0h1m4 0h1m4 0h1m7 0h1m6 0h1m6 0h1m5 0h1m7 0h1m5 0h1m6 0h1m7 0h1m5 0h1m6 0h1m5 0h1m6 0h3m4 0h1m5 0h1M2 30h1m4 0h1m1 0h1m6 0h1m3 0h1m5 0h1m3 0h3m7 0h1m6 0h1m5 0h1m7 0h1m5 0h1m4 0h2m8 0h1m5 0h1m6 0h1m5 0h1m6 0h1m6 0h1m5 0h1M2 31h1m3 0h1m3 0h1m6 0h1m2 0h1m6 0h3m10 0h1m6 0h1m5 0h1m7 0h1m6 0h1m2 0h1m10 0h1m5 0h1m5 0h1m5 0h1m6 0h1m7 0h1m5 0h1M1 32h1m4 0h1m3 0h1m7 0h1m2 0h1m18 0h1m6 0h1m5 0h1m7 0h1m6 0h3m10 0h1m6 0h1m5 0h1m5 0h1m6 0h1m8 0h1m4 0h1M1 33h1m4 0h1m4 0h1m6 0h1m2 0h1m18 0h1m6 0h1m5 0h1m8 0h1m18 0h1m6 0h1m5 0h1m4 0h1m6 0h1m9 0h1m4 0h1M1 34h1m4 0h1m5 0h1m6 0h1m2 0h1m17 0h1m6 0h1m5 0h1m8 0h1m18 0h1m6 0h1m5 0h1m4 0h1m6 0h1m9 0h1m4 0h1M1 35h1m4 0h1m6 0h1m6 0h1m2 0h1m9 0h2m4 0h1m7 0h1m5 0h1m9 0h1m10 0h2m5 0h1m6 0h1m5 0h1m5 0h1m4 0h1m10 0h1m4 0h1M2 36h2m2 0h1m7 0h1m6 0h1m1 0h1m7 0h2m1 0h1m4 0h1m7 0h1m5 0h1m10 0h2m6 0h2m2 0h1m4 0h1m6 0h1m4 0h1m6 0h1m3 0h1m11 0h1m4 0h1M4 37h3m8 0h1m5 0h1m2 0h2m3 0h2m4 0h1m3 0h1m7 0h1m4 0h1m13 0h6m4 0h1m4 0h1m6 0h1m4 0h1m7 0h1m2 0h1m11 0h1m4 0h1M16 38h1m5 0h1m3 0h3m6 0h1m3 0h1m7 0h1m4 0h1m23 0h1m4 0h1m6 0h1m4 0h1m8 0h2m13 0h1m4 0h1M17 39h2m4 0h1m11 0h1m3 0h1m7 0h1m4 0h1m23 0h1m3 0h1m7 0h1m4 0h1m23 0h1m4 0h1M19 40h1m3 0h1m12 0h3m9 0h1m3 0h1m24 0h3m9 0h1m2 0h1m25 0h1m3 0h1M20 41h3m25 0h1m1 0h2m37 0h1m2 0h1m25 0h1m3 0h1m-74 1h1m40 0h3m26 0h1m2 0h1m-4 1h4"/><path stroke="#fff" d="M28 1h3m6 0h1M27 2h5m4 0h3m31 0h3m6 0h1M27 3h5m3 0h4m29 0h5m4 0h4M28 4h3m4 0h3m30 0h4m4 0h5M29 5h1m6 0h1m32 0h3m5 0h3M70 6h1m6 0h2m32 3h5M8 10h7m33 0h17m1 0h1m20 0h17m6 0h7M4 11h13m8 0h3m10 0h2m3 0h22m1 0h2m16 0h21m4 0h9M3 12h15m6 0h4m9 0h3m1 0h22m2 0h4m9 0h3m1 0h23m4 0h9M3 13h7m5 0h4m5 0h4m9 0h3m1 0h17m7 0h4m9 0h4m1 0h15m10 0h10M4 14h5m7 0h3m4 0h5m9 0h4m10 0h5m8 0h5m9 0h4m1 0h3m6 0h5m11 0h10M6 15h3m7 0h3m4 0h4m10 0h4m10 0h5m8 0h5m9 0h5m9 0h5m11 0h11M6 16h2m8 0h3m4 0h4m10 0h4m10 0h5m8 0h5m9 0h5m9 0h4m11 0h6m1 0h5M6 17h2m7 0h4m4 0h4m10 0h4m9 0h5m9 0h5m9 0h5m8 0h5m11 0h5m2 0h5M5 18h3m6 0h5m4 0h4m10 0h4m9 0h5m9 0h4m10 0h5m8 0h5m10 0h6m3 0h4M5 19h3m5 0h5m4 0h5m10 0h4m9 0h5m8 0h5m10 0h5m8 0h5m10 0h5m4 0h5M5 20h3m3 0h6m5 0h5m10 0h4m9 0h5m8 0h5m10 0h5m8 0h5m10 0h5m4 0h5M4 21h4m1 0h8m5 0h4m11 0h4m9 0h5m8 0h5m10 0h5m8 0h4m10 0h6m4 0h5M4 22h12m6 0h4m11 0h4m9 0h4m9 0h5m10 0h5m8 0h4m10 0h5m5 0h6M4 23h11m7 0h4m10 0h5m8 0h5m9 0h4m11 0h4m8 0h5m10 0h5m4 0h8M4 24h10m7 0h5m10 0h5m8 0h5m9 0h4m10 0h5m8 0h5m9 0h20M3 25h11m7 0h5m10 0h5m8 0h5m9 0h4m10 0h5m8 0h5m9 0h18M3 26h10m8 0h5m10 0h4m9 0h5m9 0h4m10 0h5m8 0h5m8 0h18M3 27h5m1 0h5m7 0h5m9 0h5m9 0h4m10 0h4m9 0h6m8 0h5m8 0h11m2 0h5M3 28h4m2 0h6m6 0h4m10 0h5m9 0h4m9 0h5m9 0h6m8 0h5m8 0h8m5 0h5M3 29h4m3 0h5m6 0h4m9 0h6m8 0h5m9 0h5m8 0h7m7 0h6m7 0h6m8 0h5M3 30h4m3 0h6m5 0h5m7 0h7m8 0h5m9 0h5m7 0h8m7 0h6m7 0h6m8 0h5M3 31h3m5 0h6m4 0h6m3 0h10m8 0h5m9 0h6m4 0h10m7 0h5m7 0h6m9 0h5M2 32h4m5 0h7m4 0h18m8 0h5m9 0h6m3 0h10m8 0h5m7 0h6m10 0h4M2 33h4m6 0h6m4 0h18m8 0h5m10 0h18m8 0h5m6 0h6m11 0h4M2 34h4m7 0h6m4 0h17m8 0h5m10 0h18m8 0h5m6 0h6m11 0h4M2 35h4m8 0h6m4 0h9m2 0h4m9 0h5m11 0h10m2 0h5m8 0h5m7 0h4m12 0h4M4 36h2m9 0h6m3 0h7m4 0h4m9 0h5m13 0h6m5 0h4m8 0h4m8 0h3m13 0h4M16 37h5m5 0h3m7 0h3m9 0h4m25 0h4m8 0h4m9 0h2m13 0h4M17 38h5m14 0h3m9 0h4m25 0h4m8 0h4m25 0h4M19 39h4m13 0h3m9 0h4m25 0h3m9 0h4m25 0h4M20 40h3m26 0h3m38 0h2m27 0h3m-73 1h1m40 0h2m27 0h3m-2 1h2"/><path stroke="#262b44" d="M26 4h1m0 1h1m6 0h1m32 0h1m7 0h1M28 6h1m1 0h1m4 0h1m1 0h1m30 0h1m6 0h1m-7 1h1m1 0h1m4 0h1m2 0h1m-3 1h2M65 9h1m42 1h1M1 12h1m20 0h1m12 0h1m71 0h1M1 13h1m20 0h1m12 0h1m27 0h1m12 0h1m28 0h1M2 14h1m7 0h5m20 0h1m22 0h5m13 0h1m21 0h7m1 0h1M2 15h1m11 0h1m6 0h1m6 0h1m6 0h1m6 0h8m12 0h1m13 0h1m9 0h5m15 0h1M4 16h1m4 0h1m4 0h1m6 0h1m13 0h1m13 0h1m12 0h1m13 0h1m7 0h2m4 0h1m6 0h1M4 17h1m8 0h1m7 0h1m13 0h1m12 0h1m13 0h1m13 0h1m12 0h1m15 0h1m-94 1h1m8 0h1m13 0h1m12 0h1m13 0h1m13 0h1m12 0h1m23 0h1M3 19h1m6 0h1m24 0h1m12 0h1m12 0h1m14 0h1m12 0h1m14 0h1m7 0h2M3 20h1m16 0h1m14 0h1m12 0h1m12 0h1m14 0h1m12 0h1m14 0h1m8 0h1m-94 1h1m6 0h1m7 0h1m12 0h1m12 0h1m14 0h1m12 0h1m6 0h1m16 0h1M2 22h1m17 0h1m14 0h1m12 0h1m12 0h1m14 0h1m12 0h1m13 0h1m7 0h1m1 0h1M2 23h1m17 0h1m26 0h1m13 0h1m14 0h1m6 0h1m4 0h1m14 0h1M2 24h1m31 0h1m12 0h1m13 0h1m13 0h1m12 0h1m13 0h1m-84 1h1m14 0h1m12 0h1m13 0h1m13 0h1m12 0h1m13 0h1M1 26h1m17 0h1m14 0h1m12 0h1m13 0h1m13 0h1m12 0h1m12 0h1m20 0h2M1 27h1m17 0h1m27 0h1m13 0h1m12 0h1m13 0h1m12 0h1M1 28h1m17 0h1m13 0h1m13 0h1m12 0h1m13 0h1m13 0h1m12 0h1m12 0h1M1 29h1m6 0h1m10 0h1m12 0h1m13 0h1m13 0h1m12 0h1m13 0h1m12 0h1m10 0h4M1 30h1m6 0h1m10 0h1m9 0h1m16 0h1m13 0h1m10 0h1m15 0h1m12 0h1m8 0h2m3 0h1M1 31h1m5 0h1m1 0h1m9 0h1m26 0h1m13 0h1m9 0h1m16 0h1m11 0h1m8 0h1m5 0h1M9 32h1m10 0h1m25 0h1m13 0h1m21 0h1m4 0h1m11 0h1m15 0h1M0 33h1m9 0h1m9 0h1m25 0h1m14 0h1m25 0h1m10 0h1m8 0h1m7 0h1M0 34h1m10 0h1m9 0h1m24 0h1m14 0h1m25 0h1m10 0h1m16 0h1M0 35h1m11 0h1m9 0h1m23 0h1m15 0h1m24 0h1m11 0h1m6 0h1m8 0h1M1 36h1m11 0h1m8 0h1m10 0h1m12 0h1m16 0h1m10 0h2m11 0h1m11 0h1m5 0h1m9 0h1M2 37h2m10 0h1m8 0h1m7 0h2m1 0h1m11 0h1m17 0h2m6 0h2m1 0h1m11 0h1m12 0h1m4 0h1m9 0h1M4 38h3m8 0h1m8 0h2m3 0h2m3 0h1m11 0h1m19 0h6m3 0h1m11 0h1m13 0h1m2 0h1m11 0h1M16 39h1m9 0h3m5 0h1m11 0h1m28 0h1m5 0h1m5 0h1m14 0h2m12 0h1M17 40h2m16 0h1m11 0h1m28 0h1m3 0h1m7 0h1m28 0h1m-99 1h1m16 0h3m8 0h1m29 0h3m8 0h1m28 0h1m-98 1h3m25 0h1m1 0h1m38 0h1m28 0h1m-29 1h2m26 0h1m0 1h2"/><path stroke="#3a4466" d="M32 4h1m6 0h1m33 0h1M31 5h1m6 0h1m42 0h1M72 6h1m7 0h1m29 2h1M7 9h1m100 0h1M3 10h1m33 0h1M1 11h1m33 0h1m41 0h1m29 0h1m-32 1h1m29 1h1m-2 3h1M3 18h1m100 0h1m-85 1h1M2 21h1m100 0h1m-70 2h1m-16 1h1M1 25h1m122 0h1m-92 2h1M0 32h1m38 8h1m52 3h1m28 1h2"/></svg>